<svg xmlns="http://www.w3.org/2000/svg" style="display: none;">
  <!-- Іконка Petrol (Бензоколонка) -->
  <symbol id="icon-petrol" viewBox="0 0 20 20" fill="none" stroke="currentColor">
    <path d="M4 17V3C4 2.44772 4.44772 2 5 2H12C12.5523 2 13 2.44772 13 3V17M3 17H14M6 5H11V9H6V5ZM13 6H15.5C16.3284 6 17 6.67157 17 7.5V12C17 12.8284 16.3284 13.5 15.5 13.5H15M15 11.5V15.5C15 16.3284 14.3284 17 13.5 17C12.6716 17 12 16.3284 12 15.5" stroke-width="1.5" stroke-linecap="round" stroke-linejoin="round"/>
  </symbol>

  <!-- Іконка Transmission (Автомат/Коробка передач у вигляді схеми) -->
  <symbol id="icon-transmission" viewBox="0 0 20 20" fill="none" stroke="currentColor">
    <circle cx="5" cy="5" r="2.25" stroke-width="1.5"/>
    <circle cx="15" cy="5" r="2.25" stroke-width="1.5"/>
    <circle cx="5" cy="15" r="2.25" stroke-width="1.5"/>
    <circle cx="15" cy="15" r="2.25" stroke-width="1.5"/>
    <path d="M5 7.25V12.75M15 7.25V12.75M5 10H15" stroke-width="1.5" stroke-linecap="round" stroke-linejoin="round"/>
  </symbol>

  <!-- Іконка Form/Alcove (Машинка/Кемпер спереду) -->
  <symbol id="icon-alcove" viewBox="0 0 20 20" fill="none" stroke="currentColor">
    <path d="M3 12V15C3 15.5523 3.44772 16 4 16H16C16.5523 16 17 15.5523 17 15V12M3 12C3 10.5 4 8 7 8H13C16 8 17 10.5 17 12M3 12H17M5 16V17.5M15 16V17.5M5 11H7M13 11H15M6 4H14C15 4 16 5 16 6V8H4V6C4 5 5 4 6 4Z" stroke-width="1.5" stroke-linecap="round" stroke-linejoin="round"/>
  </symbol>

  <!-- Іконка Location (Мапа/Локація) -->
  <symbol id="icon-location" viewBox="0 0 20 20" fill="none" stroke="currentColor">
    <path d="M3 4.5V16.5L7.5 13.5L12.5 16.5L17 13.5V1.5L12.5 4.5L7.5 1.5L3 4.5ZM7.5 1.5V13.5M12.5 4.5V16.5" stroke-width="1.5" stroke-linecap="round" stroke-linejoin="round"/>
  </symbol>
</svg>
