<svg xmlns="http://www.w3.org/2000/svg" style="display: none;">
  <!-- Іконка Petrol (Бензоколонка) -->
 <symbol id="icon-petrol" viewBox="0 0 20 20" fill="none" stroke="currentColor">
    <path d="M4.167 17.5V3.333A1.667 1.667 0 0 1 5.833 1.667h5A1.667 1.667 0 0 1 12.5 3.333v14.167M2.5 17.5h11.667M12.5 6.667h.833a1.667 1.667 0 0 1 1.667 1.667v4.166a1.667 1.667 0 0 0 3.333 0V9.167" stroke-width="1.5" stroke-linecap="round" stroke-linejoin="round"/>
    <!-- Чорне віконце всередині (залите) -->
    <rect x="5.833" y="5" width="4.167" height="3.333" fill="currentColor" stroke="none"/>
  </symbol>

  <!-- Іконка Transmission (Автомат/Коробка передач у вигляді схеми) -->
  <symbol id="icon-transmission" viewBox="0 0 20 20" fill="none" stroke="currentColor">
    <circle cx="10" cy="4.5" r="2" stroke-width="1.5"/>
    <circle cx="4.5" cy="15.5" r="2" stroke-width="1.5"/>
    <circle cx="10" cy="15.5" r="2" stroke-width="1.5"/>
    <circle cx="15.5" cy="15.5" r="2" stroke-width="1.5"/>
    <path d="M10 6.5v7M4.5 13.5h11" stroke-width="1.5" stroke-linecap="round"/>
  </symbol>

  <!-- Іконка Form/Alcove (Машинка/Кемпер спереду) -->
  <symbol id="icon-alcove" viewBox="0 0 20 20" fill="none" stroke="currentColor">
    <!-- Нижній контур коліс/бампера -->
    <path d="M3.333 14.167v2.5a.833.833 0 0 0 .834.833h.833a.833.833 0 0 0 .833-.833v-1.667h8.334v1.667a.833.833 0 0 0 .833.833h.833a.833.833 0 0 0 .834-.833v-2.5" stroke-width="1.5" stroke-linecap="round" stroke-linejoin="round"/>
    <!-- Залитий корпус машини -->
    <path d="M16.667 14.167v-3.47a1.667 1.667 0 0 0-.427-1.107l-1.82-2.124A2.5 2.5 0 0 0 12.52 6.67H7.48a2.5 2.5 0 0 0-1.9.796l-1.82 2.124a1.667 1.667 0 0 0-.427 1.107v3.47h13.334Z" fill="currentColor" stroke-width="1.5" stroke-linejoin="round"/>
    <!-- Лобове скло (вирізане/світле) -->
    <path d="M6.5 8.333h7L12.25 7.083h-4.5L6.5 8.333Z" fill="#F2F4F7" stroke="none"/>
    <!-- Світлі контурні фари всередині темного корпусу -->
    <circle cx="6.25" cy="11.25" r="1.25" fill="#F2F4F7" stroke="none"/>
    <circle cx="13.75" cy="11.25" r="1.25" fill="#F2F4F7" stroke="none"/>
  </symbol>

  <!-- Іконка Location (Мапа/Локація) -->
  <symbol id="icon-location" viewBox="0 0 20 20" fill="none" stroke="currentColor">
    <path d="M3 4.5V16.5L7.5 13.5L12.5 16.5L17 13.5V1.5L12.5 4.5L7.5 1.5L3 4.5ZM7.5 1.5V13.5M12.5 4.5V16.5" stroke-width="1.5" stroke-linecap="round" stroke-linejoin="round"/>
  </symbol>
</svg>
